<svg xmlns="http://www.w3.org/2000/svg" xmlns:xlink="http://www.w3.org/1999/xlink" width="500" zoomAndPan="magnify" viewBox="0 0 375 374.999991" height="500" preserveAspectRatio="xMidYMid meet" version="1.0"><defs><g/></defs><rect x="-37.5" width="450" fill="#ffffff" y="-37.499999" height="449.999989" fill-opacity="1"/><rect x="-37.5" width="450" fill="#ffffff" y="-37.499999" height="449.999989" fill-opacity="1"/><rect x="-37.5" width="450" fill="#ffffff" y="-37.499999" height="449.999989" fill-opacity="1"/><g fill="#c15064" fill-opacity="1"><g transform="translate(87.082031, 276.902015)"><g><path d="M 196 -184.828125 L 196 -162.484375 L 176.203125 -158.6875 L 176.203125 0 L 139.265625 0 L 64.609375 -124.40625 L 63.859375 -124.28125 L 63.859375 -26.03125 L 83.65625 -22.21875 L 83.65625 0 L 7.109375 0 L 7.109375 -22.21875 L 26.78125 -26.03125 L 26.78125 -158.6875 L 7.109375 -162.484375 L 7.109375 -184.828125 L 63.859375 -184.828125 L 138.5 -60.421875 L 139.265625 -60.546875 L 139.265625 -158.6875 L 119.453125 -162.484375 L 119.453125 -184.828125 Z M 196 -184.828125 "/></g></g></g></svg>